<svg width="601" height="378" xmlns="http://www.w3.org/2000/svg" xmlns:xlink="http://www.w3.org/1999/xlink" xml:space="preserve" overflow="hidden"><g><g><path d="M596.977 0.428248C598.633 0.428248 599.975 1.77038 599.975 3.42598L599.975 374.289C599.975 375.944 598.633 377.286 596.977 377.286L3.42598 377.286C1.77038 377.286 0.428248 375.944 0.428248 374.289L0.428248 3.42598C0.428248 1.77038 1.77038 0.428248 3.42598 0.428248Z" stroke="#000000" stroke-width="0.856496" stroke-linecap="butt" stroke-linejoin="miter" stroke-miterlimit="4" stroke-opacity="1" fill="#FFFFFF" fill-rule="nonzero" fill-opacity="1" transform="matrix(1.00052 0 0 1 0.285646 0.285498)"/><path d="M515.61 21.8406C517.266 21.8406 518.608 23.1828 518.608 24.8384L518.608 352.876C518.608 354.532 517.266 355.874 515.61 355.874L33.4033 355.874C31.7477 355.874 30.4056 354.532 30.4056 352.876L30.4056 24.8384C30.4056 23.1828 31.7477 21.8406 33.4033 21.8406Z" stroke="#000000" stroke-width="0.856496" stroke-linecap="butt" stroke-linejoin="miter" stroke-miterlimit="4" stroke-opacity="1" fill="#FFFFFF" fill-rule="nonzero" fill-opacity="1" transform="matrix(1.00052 0 0 1 0.285646 0.285498)"/><path d="M187.144 34.6881C188.8 34.6881 190.142 36.0302 190.142 37.6858L190.142 327.181C190.142 328.837 188.8 330.179 187.144 330.179L51.818 330.179C50.1624 330.179 48.8202 328.837 48.8202 327.181L48.8202 37.6858C48.8202 36.0302 50.1624 34.6881 51.818 34.6881Z" stroke="#000000" stroke-width="0.856496" stroke-linecap="butt" stroke-linejoin="miter" stroke-miterlimit="4" stroke-opacity="1" fill="#FFFFFF" fill-rule="nonzero" fill-opacity="1" transform="matrix(1.00052 0 0 1 0.285646 0.285498)"/><path d="M344.311 146.032C345.967 146.032 347.309 147.375 347.309 149.03L347.309 310.051C347.309 311.707 345.967 313.049 344.311 313.049L244.529 313.049C242.874 313.049 241.532 311.707 241.532 310.051L241.532 149.03C241.532 147.375 242.874 146.032 244.529 146.032Z" stroke="#000000" stroke-width="0.856496" stroke-linecap="butt" stroke-linejoin="miter" stroke-miterlimit="4" stroke-opacity="1" fill="#FFFFFF" fill-rule="nonzero" fill-opacity="1" transform="matrix(1.00052 0 0 1 0.285646 0.285498)"/><path d="M474.07 146.032C475.726 146.032 477.068 147.375 477.068 149.03L477.068 310.051C477.068 311.707 475.726 313.049 474.07 313.049L367.437 313.049C365.781 313.049 364.439 311.707 364.439 310.051L364.439 149.03C364.439 147.375 365.781 146.032 367.437 146.032Z" stroke="#000000" stroke-width="0.856496" stroke-linecap="butt" stroke-linejoin="miter" stroke-miterlimit="4" stroke-opacity="1" fill="#FFFFFF" fill-rule="nonzero" fill-opacity="1" transform="matrix(1.00052 0 0 1 0.285646 0.285498)"/><text fill="#000000" fill-opacity="1" font-family="Times New Roman,Times New Roman_MSFontService,sans-serif" font-style="normal" font-variant="normal" font-weight="400" font-stretch="normal" font-size="18" text-anchor="start" direction="ltr" writing-mode="lr-tb" unicode-bidi="normal" text-decoration="none" transform="matrix(0.42847 0 0 0.428248 283.647 155)">Node 1</text><text fill="#000000" fill-opacity="1" font-family="Times New Roman,Times New Roman_MSFontService,sans-serif" font-style="normal" font-variant="normal" font-weight="400" font-stretch="normal" font-size="18" text-anchor="start" direction="ltr" writing-mode="lr-tb" unicode-bidi="normal" text-decoration="none" transform="matrix(0.42847 0 0 0.428248 410.474 155)">Node 2</text><path d="M274.507 206.632 274.707 220.576 294.406 220.576 294.406 231.311" stroke="#000000" stroke-width="0.428248" stroke-linecap="butt" stroke-linejoin="miter" stroke-miterlimit="10" stroke-opacity="1" fill="none" fill-rule="nonzero" transform="matrix(1.00052 0 0 1 0.285646 0.285498)"/><path d="M294.406 233.561 292.91 230.563 294.406 231.311 295.908 230.563Z" stroke="#000000" stroke-width="0.428248" stroke-linecap="butt" stroke-linejoin="miter" stroke-miterlimit="10" stroke-opacity="1" fill="#000000" fill-rule="nonzero" fill-opacity="1" transform="matrix(1.00052 0 0 1 0.285646 0.285498)"/><path d="M324.401 205.348 324.612 219.891 294.406 219.891 294.417 231.311" stroke="#000000" stroke-width="0.428248" stroke-linecap="butt" stroke-linejoin="miter" stroke-miterlimit="10" stroke-opacity="1" fill="none" fill-rule="nonzero" transform="matrix(1.00052 0 0 1 0.285646 0.285498)"/><path d="M294.417 233.561 292.916 230.563 294.417 231.311 295.913 230.557Z" stroke="#000000" stroke-width="0.428248" stroke-linecap="butt" stroke-linejoin="miter" stroke-miterlimit="10" stroke-opacity="1" fill="#000000" fill-rule="nonzero" fill-opacity="1" transform="matrix(1.00052 0 0 1 0.285646 0.285498)"/><path d="M172.156 86.2948 345.624 86.506 345.624 81.8239 515.879 81.8239" stroke="#000000" stroke-width="0.428248" stroke-linecap="butt" stroke-linejoin="miter" stroke-miterlimit="10" stroke-dasharray="1.28474 1.28474" stroke-opacity="1" fill="none" fill-rule="nonzero" transform="matrix(1.00052 0 0 1 0.285646 0.285498)"/><path d="M518.128 81.8239 515.131 83.3199 515.879 81.8239 515.131 80.3221Z" stroke="#000000" stroke-width="0.428248" stroke-linecap="butt" stroke-linejoin="miter" stroke-miterlimit="10" stroke-opacity="1" fill="#000000" fill-rule="nonzero" fill-opacity="1" transform="matrix(1.00052 0 0 1 0.285646 0.285498)"/><path d="M445.806 205.348 446.006 219.891 421.624 219.891 421.613 231.311" stroke="#000000" stroke-width="0.428248" stroke-linecap="butt" stroke-linejoin="miter" stroke-miterlimit="10" stroke-opacity="1" fill="none" fill-rule="nonzero" transform="matrix(1.00052 0 0 1 0.285646 0.285498)"/><path d="M421.613 233.561 420.117 230.557 421.613 231.311 423.115 230.563Z" stroke="#000000" stroke-width="0.428248" stroke-linecap="butt" stroke-linejoin="miter" stroke-miterlimit="10" stroke-opacity="1" fill="#000000" fill-rule="nonzero" fill-opacity="1" transform="matrix(1.00052 0 0 1 0.285646 0.285498)"/><path d="M404.911 206.632 405.122 220.576 421.624 220.576 421.613 231.311" stroke="#000000" stroke-width="0.428248" stroke-linecap="butt" stroke-linejoin="miter" stroke-miterlimit="10" stroke-opacity="1" fill="none" fill-rule="nonzero" transform="matrix(1.00052 0 0 1 0.285646 0.285498)"/><path d="M421.613 233.561 420.117 230.557 421.613 231.311 423.115 230.563Z" stroke="#000000" stroke-width="0.428248" stroke-linecap="butt" stroke-linejoin="miter" stroke-miterlimit="10" stroke-opacity="1" fill="#000000" fill-rule="nonzero" fill-opacity="1" transform="matrix(1.00052 0 0 1 0.285646 0.285498)"/><text fill="#000000" fill-opacity="1" font-family="Helvetica,Helvetica_MSFontService,sans-serif" font-style="normal" font-variant="normal" font-weight="400" font-stretch="normal" font-size="12" text-anchor="start" direction="ltr" writing-mode="lr-tb" unicode-bidi="normal" text-decoration="none" transform="matrix(0.42847 0 0 0.428248 67.6982 263)">kube-scheduler</text><text fill="#000000" fill-opacity="1" font-family="Helvetica,Helvetica_MSFontService,sans-serif" font-style="normal" font-variant="normal" font-weight="400" font-stretch="normal" font-size="12" text-anchor="start" direction="ltr" writing-mode="lr-tb" unicode-bidi="normal" text-decoration="none" transform="matrix(0.42847 0 0 0.428248 124.47 262)">kube-controller-manager</text><path d="M538.953 66.8066C522.679 66.8066 518.608 81.7953 531.627 84.7931 518.608 91.3881 533.254 105.777 543.835 99.7817 551.155 111.773 575.565 111.773 583.702 99.7817 599.975 99.7817 599.975 87.7908 589.806 81.7953 599.975 69.8044 583.702 57.8134 569.461 63.8089 559.292 54.8157 543.018 54.8157 538.953 66.8066Z" stroke="#006EAF" stroke-width="0.428248" stroke-linecap="butt" stroke-linejoin="miter" stroke-miterlimit="10" stroke-opacity="1" fill="#1BA1E2" fill-rule="nonzero" fill-opacity="1" transform="matrix(1.00052 0 0 1 0.285646 0.285498)"/><text fill="#FFFFFF" fill-opacity="1" font-family="Helvetica,Helvetica_MSFontService,sans-serif" font-style="normal" font-variant="normal" font-weight="400" font-stretch="normal" font-size="12" text-anchor="start" direction="ltr" writing-mode="lr-tb" unicode-bidi="normal" text-decoration="none" transform="matrix(0.42847 0 0 0.428248 531.517 84)">CLOUD PROVIDER API</text><path d="M253.74 234.04 335.107 234.04 335.107 304.49 253.74 304.49Z" stroke="#000000" stroke-width="0.428248" stroke-linecap="butt" stroke-linejoin="miter" stroke-miterlimit="4" stroke-opacity="1" fill="none" fill-rule="nonzero" transform="matrix(1.00052 0 0 1 0.285646 0.285498)"/><path d="M377.286 234.04 465.934 234.04 465.934 304.49 377.286 304.49Z" stroke="#000000" stroke-width="0.428248" stroke-linecap="butt" stroke-linejoin="miter" stroke-miterlimit="4" stroke-opacity="1" fill="none" fill-rule="nonzero" transform="matrix(1.00052 0 0 1 0.285646 0.285498)"/><path d="M321.614 291.637 335.107 291.637 335.107 304.484 321.614 304.484Z" fill="#0050EF" fill-rule="nonzero" fill-opacity="1" transform="matrix(1.00052 0 0 1 0.285646 0.285498)"/><text fill="#FFFFFF" fill-opacity="1" font-family="Helvetica,Helvetica_MSFontService,sans-serif" font-style="normal" font-variant="normal" font-weight="400" font-stretch="normal" font-size="12" text-anchor="start" direction="ltr" writing-mode="lr-tb" unicode-bidi="normal" text-decoration="none" transform="matrix(0.42847 0 0 0.428248 324.137 300)">CRI</text><path d="M452.447 291.637 465.939 291.637 465.939 304.484 452.447 304.484Z" fill="#0050EF" fill-rule="nonzero" fill-opacity="1" transform="matrix(1.00052 0 0 1 0.285646 0.285498)"/><text fill="#FFFFFF" fill-opacity="1" font-family="Helvetica,Helvetica_MSFontService,sans-serif" font-style="normal" font-variant="normal" font-weight="400" font-stretch="normal" font-size="12" text-anchor="start" direction="ltr" writing-mode="lr-tb" unicode-bidi="normal" text-decoration="none" transform="matrix(0.42847 0 0 0.428248 454.82 300)">CRI</text><text fill="#000000" fill-opacity="1" font-family="Helvetica,Helvetica_MSFontService,sans-serif" font-style="normal" font-variant="normal" font-weight="400" font-stretch="normal" font-size="14" text-anchor="start" direction="ltr" writing-mode="lr-tb" unicode-bidi="normal" text-decoration="none" transform="matrix(0.42847 0 0 0.428248 92.5494 47)">CONTROL PLANE</text><text fill="#000000" fill-opacity="1" font-family="Helvetica,Helvetica_MSFontService,sans-serif" font-style="normal" font-variant="normal" font-weight="400" font-stretch="normal" font-size="14" text-anchor="start" direction="ltr" writing-mode="lr-tb" unicode-bidi="normal" text-decoration="none" transform="matrix(0.42847 0 0 0.428248 277.863 34)">CLUSTER</text><path d="M94.6428 149.938 116.969 149.938" stroke="#000000" stroke-width="0.428248" stroke-linecap="butt" stroke-linejoin="miter" stroke-miterlimit="10" stroke-opacity="1" fill="none" fill-rule="nonzero" transform="matrix(1.00052 0 0 1 0.285646 0.285498)"/><path d="M119.858 149.938 116.004 151.868 116.969 149.938 116.004 148.014Z" stroke="#000000" stroke-width="0.428248" stroke-linecap="butt" stroke-linejoin="miter" stroke-miterlimit="10" stroke-opacity="1" fill="#000000" fill-rule="nonzero" fill-opacity="1" transform="matrix(1.00052 0 0 1 0.285646 0.285498)"/><path d="M91.645 141.002C93.3006 141.002 94.6428 142.344 94.6428 144L94.6428 173.766C94.6428 175.421 93.3006 176.764 91.645 176.764L63.3807 176.764C61.7251 176.764 60.3829 175.421 60.3829 173.766L60.3829 144C60.3829 142.344 61.7251 141.002 63.3807 141.002Z" stroke="#001DBC" stroke-width="0.856496" stroke-linecap="butt" stroke-linejoin="miter" stroke-miterlimit="4" stroke-opacity="1" fill="#0050EF" fill-rule="nonzero" fill-opacity="1" transform="matrix(1.00052 0 0 1 0.285646 0.285498)"/><text fill="#FFFFFF" fill-opacity="1" font-family="Helvetica,Helvetica_MSFontService,sans-serif" font-style="normal" font-variant="normal" font-weight="400" font-stretch="normal" font-size="16" text-anchor="start" direction="ltr" writing-mode="lr-tb" unicode-bidi="normal" text-decoration="none" transform="matrix(0.42847 0 0 0.428248 71.126 161)">etcd</text><path d="M136.4 141.002 136.411 122.879 124.192 122.879 124.192 108.078" stroke="#000000" stroke-width="0.428248" stroke-linecap="butt" stroke-linejoin="miter" stroke-miterlimit="10" stroke-dasharray="1.28474 1.28474" stroke-opacity="1" fill="none" fill-rule="nonzero" transform="matrix(1.00052 0 0 1 0.285646 0.285498)"/><path d="M124.192 105.183 126.122 109.038 124.192 108.078 122.268 109.038Z" stroke="#000000" stroke-width="0.428248" stroke-linecap="butt" stroke-linejoin="miter" stroke-miterlimit="10" stroke-opacity="1" fill="#000000" fill-rule="nonzero" fill-opacity="1" transform="matrix(1.00052 0 0 1 0.285646 0.285498)"/><path d="M181.577 141.002C183.233 141.002 184.575 142.344 184.575 144L184.575 173.766C184.575 175.421 183.233 176.764 181.577 176.764L123.335 176.764C121.68 176.764 120.338 175.421 120.338 173.766L120.338 144C120.338 142.344 121.68 141.002 123.335 141.002Z" stroke="#001DBC" stroke-width="0.856496" stroke-linecap="butt" stroke-linejoin="miter" stroke-miterlimit="4" stroke-opacity="1" fill="#0050EF" fill-rule="nonzero" fill-opacity="1" transform="matrix(1.00052 0 0 1 0.285646 0.285498)"/><text fill="#FFFFFF" fill-opacity="1" font-family="Helvetica,Helvetica_MSFontService,sans-serif" font-style="normal" font-variant="normal" font-weight="400" font-stretch="normal" font-size="16" text-anchor="start" direction="ltr" writing-mode="lr-tb" unicode-bidi="normal" text-decoration="none" transform="matrix(0.42847 0 0 0.428248 128.755 161)">kube-api-server</text><path d="M83.9366 218.726 83.9366 197.451 111.801 197.451 111.801 158.908 116.969 158.891" stroke="#000000" stroke-width="0.428248" stroke-linecap="butt" stroke-linejoin="miter" stroke-miterlimit="10" stroke-opacity="1" fill="none" fill-rule="nonzero" transform="matrix(1.00052 0 0 1 0.285646 0.285498)"/><path d="M119.858 158.88 116.009 160.821 116.969 158.891 115.998 156.967Z" stroke="#000000" stroke-width="0.428248" stroke-linecap="butt" stroke-linejoin="miter" stroke-miterlimit="10" stroke-opacity="1" fill="#000000" fill-rule="nonzero" fill-opacity="1" transform="matrix(1.00052 0 0 1 0.285646 0.285498)"/><path d="M110.916 218.726C112.572 218.726 113.914 220.068 113.914 221.724L113.914 251.49C113.914 253.146 112.572 254.488 110.916 254.488L56.957 254.488C55.3013 254.488 53.9592 253.146 53.9592 251.49L53.9592 221.724C53.9592 220.068 55.3013 218.726 56.957 218.726Z" stroke="#001DBC" stroke-width="0.856496" stroke-linecap="butt" stroke-linejoin="miter" stroke-miterlimit="4" stroke-opacity="1" fill="#0050EF" fill-rule="nonzero" fill-opacity="1" transform="matrix(1.00052 0 0 1 0.285646 0.285498)"/><text fill="#FFFFFF" fill-opacity="1" font-family="Helvetica,Helvetica_MSFontService,sans-serif" font-style="normal" font-variant="normal" font-weight="400" font-stretch="normal" font-size="16" text-anchor="start" direction="ltr" writing-mode="lr-tb" unicode-bidi="normal" text-decoration="none" transform="matrix(0.42847 0 0 0.428248 69.1978 239)">scheduler</text><path d="M152.456 218.726C152.456 218.726 152.456 205.86 152.456 180.127" stroke="#000000" stroke-width="0.428248" stroke-linecap="butt" stroke-linejoin="miter" stroke-miterlimit="10" stroke-opacity="1" fill="none" fill-rule="nonzero" transform="matrix(1.00052 0 0 1 0.285646 0.285498)"/><path d="M152.456 177.237 154.386 181.092 152.456 180.127 150.532 181.092Z" stroke="#000000" stroke-width="0.428248" stroke-linecap="butt" stroke-linejoin="miter" stroke-miterlimit="10" stroke-opacity="1" fill="#000000" fill-rule="nonzero" fill-opacity="1" transform="matrix(1.00052 0 0 1 0.285646 0.285498)"/><path d="M181.577 218.726C183.233 218.726 184.575 220.068 184.575 221.724L184.575 251.49C184.575 253.146 183.233 254.488 181.577 254.488L123.335 254.488C121.68 254.488 120.338 253.146 120.338 251.49L120.338 221.724C120.338 220.068 121.68 218.726 123.335 218.726Z" stroke="#001DBC" stroke-width="0.856496" stroke-linecap="butt" stroke-linejoin="miter" stroke-miterlimit="4" stroke-opacity="1" fill="#0050EF" fill-rule="nonzero" fill-opacity="1" transform="matrix(1.00052 0 0 1 0.285646 0.285498)"/><text fill="#FFFFFF" fill-opacity="1" font-family="Helvetica,Helvetica_MSFontService,sans-serif" font-style="normal" font-variant="normal" font-weight="400" font-stretch="normal" font-size="16" text-anchor="start" direction="ltr" writing-mode="lr-tb" unicode-bidi="normal" text-decoration="none" transform="matrix(0.42847 0 0 0.428248 123.185 239)">Controller Manager</text><path d="M124.192 104.709 124.192 122.879 136.411 122.879 136.4 137.633" stroke="#000000" stroke-width="0.428248" stroke-linecap="butt" stroke-linejoin="miter" stroke-miterlimit="10" stroke-opacity="1" fill="none" fill-rule="nonzero" transform="matrix(1.00052 0 0 1 0.285646 0.285498)"/><path d="M136.4 140.522 134.475 136.668 136.4 137.633 138.33 136.668Z" stroke="#000000" stroke-width="0.428248" stroke-linecap="butt" stroke-linejoin="miter" stroke-miterlimit="10" stroke-opacity="1" fill="#000000" fill-rule="nonzero" fill-opacity="1" transform="matrix(1.00052 0 0 1 0.285646 0.285498)"/><path d="M167.873 68.9479C169.529 68.9479 170.871 70.29 170.871 71.9456L170.871 101.712C170.871 103.367 169.529 104.709 167.873 104.709L80.5106 104.709C78.855 104.709 77.5128 103.367 77.5128 101.712L77.5128 71.9456C77.5128 70.29 78.855 68.9479 80.5106 68.9479Z" stroke="#006EAF" stroke-width="0.856496" stroke-linecap="butt" stroke-linejoin="miter" stroke-miterlimit="4" stroke-opacity="1" fill="#1BA1E2" fill-rule="nonzero" fill-opacity="1" transform="matrix(1.00052 0 0 1 0.285646 0.285498)"/><text fill="#FFFFFF" fill-opacity="1" font-family="Helvetica,Helvetica_MSFontService,sans-serif" font-style="normal" font-variant="normal" font-weight="400" font-stretch="normal" font-size="16" text-anchor="start" direction="ltr" writing-mode="lr-tb" unicode-bidi="normal" text-decoration="none" transform="matrix(0.42847 0 0 0.428248 86.1224 89)">cloud-controller-manager</text><path d="M269.528 176.758 269.568 158.908 187.944 158.908" stroke="#000000" stroke-width="0.428248" stroke-linecap="butt" stroke-linejoin="miter" stroke-miterlimit="10" stroke-opacity="1" fill="none" fill-rule="nonzero" transform="matrix(1.00052 0 0 1 0.285646 0.285498)"/><path d="M185.054 158.908 188.909 156.979 187.944 158.908 188.909 160.833Z" stroke="#000000" stroke-width="0.428248" stroke-linecap="butt" stroke-linejoin="miter" stroke-miterlimit="10" stroke-opacity="1" fill="#000000" fill-rule="nonzero" fill-opacity="1" transform="matrix(1.00052 0 0 1 0.285646 0.285498)"/><path d="M287.246 176.758C288.901 176.758 290.243 178.1 290.243 179.756L290.243 202.344C290.243 204 288.901 205.342 287.246 205.342L251.81 205.342C250.154 205.342 248.812 204 248.812 202.344L248.812 179.756C248.812 178.1 250.154 176.758 251.81 176.758Z" stroke="#001DBC" stroke-width="0.856496" stroke-linecap="butt" stroke-linejoin="miter" stroke-miterlimit="4" stroke-opacity="1" fill="#0050EF" fill-rule="nonzero" fill-opacity="1" transform="matrix(1.00052 0 0 1 0.285646 0.285498)"/><text fill="#FFFFFF" fill-opacity="1" font-family="Helvetica,Helvetica_MSFontService,sans-serif" font-style="normal" font-variant="normal" font-weight="400" font-stretch="normal" font-size="16" text-anchor="start" direction="ltr" writing-mode="lr-tb" unicode-bidi="normal" text-decoration="none" transform="matrix(0.42847 0 0 0.428248 258.367 193)">kubelet</text><path d="M319.473 176.758 319.473 158.908 187.944 158.88" stroke="#000000" stroke-width="0.428248" stroke-linecap="butt" stroke-linejoin="miter" stroke-miterlimit="10" stroke-dasharray="1.28474 1.28474" stroke-opacity="1" fill="none" fill-rule="nonzero" transform="matrix(1.00052 0 0 1 0.285646 0.285498)"/><path d="M185.054 158.88 188.909 156.956 187.944 158.88 188.909 160.81Z" stroke="#000000" stroke-width="0.428248" stroke-linecap="butt" stroke-linejoin="miter" stroke-miterlimit="10" stroke-opacity="1" fill="#000000" fill-rule="nonzero" fill-opacity="1" transform="matrix(1.00052 0 0 1 0.285646 0.285498)"/><path d="M340.029 176.758C341.684 176.758 343.026 178.1 343.026 179.756L343.026 202.344C343.026 204 341.684 205.342 340.029 205.342L298.917 205.342C297.261 205.342 295.919 204 295.919 202.344L295.919 179.756C295.919 178.1 297.261 176.758 298.917 176.758Z" stroke="#006EAF" stroke-width="0.856496" stroke-linecap="butt" stroke-linejoin="miter" stroke-miterlimit="4" stroke-opacity="1" fill="#1BA1E2" fill-rule="nonzero" fill-opacity="1" transform="matrix(1.00052 0 0 1 0.285646 0.285498)"/><text fill="#FFFFFF" fill-opacity="1" font-family="Helvetica,Helvetica_MSFontService,sans-serif" font-style="normal" font-variant="normal" font-weight="400" font-stretch="normal" font-size="16" text-anchor="start" direction="ltr" writing-mode="lr-tb" unicode-bidi="normal" text-decoration="none" transform="matrix(0.42847 0 0 0.428248 302.714 193)">kube-proxy</text><path d="M397.305 176.758 397.357 132.471 152.456 132.471 152.456 137.633" stroke="#000000" stroke-width="0.428248" stroke-linecap="butt" stroke-linejoin="miter" stroke-miterlimit="10" stroke-opacity="1" fill="none" fill-rule="nonzero" transform="matrix(1.00052 0 0 1 0.285646 0.285498)"/><path d="M152.456 140.522 150.532 136.668 152.456 137.633 154.386 136.668Z" stroke="#000000" stroke-width="0.428248" stroke-linecap="butt" stroke-linejoin="miter" stroke-miterlimit="10" stroke-opacity="1" fill="#000000" fill-rule="nonzero" fill-opacity="1" transform="matrix(1.00052 0 0 1 0.285646 0.285498)"/><path d="M418.615 176.758C420.271 176.758 421.613 178.1 421.613 179.756L421.613 202.344C421.613 204 420.271 205.342 418.615 205.342L376.002 205.342C374.346 205.342 373.004 204 373.004 202.344L373.004 179.756C373.004 178.1 374.346 176.758 376.002 176.758Z" stroke="#001DBC" stroke-width="0.856496" stroke-linecap="butt" stroke-linejoin="miter" stroke-miterlimit="4" stroke-opacity="1" fill="#0050EF" fill-rule="nonzero" fill-opacity="1" transform="matrix(1.00052 0 0 1 0.285646 0.285498)"/><text fill="#FFFFFF" fill-opacity="1" font-family="Helvetica,Helvetica_MSFontService,sans-serif" font-style="normal" font-variant="normal" font-weight="400" font-stretch="normal" font-size="16" text-anchor="start" direction="ltr" writing-mode="lr-tb" unicode-bidi="normal" text-decoration="none" transform="matrix(0.42847 0 0 0.428248 386.48 193)">kubelet</text><path d="M451.482 174.565 451.487 132.471 152.456 132.471 152.456 137.633" stroke="#000000" stroke-width="0.428248" stroke-linecap="butt" stroke-linejoin="miter" stroke-miterlimit="10" stroke-dasharray="1.28474 1.28474" stroke-opacity="1" fill="none" fill-rule="nonzero" transform="matrix(1.00052 0 0 1 0.285646 0.285498)"/><path d="M152.456 140.522 150.532 136.668 152.456 137.633 154.386 136.668Z" stroke="#000000" stroke-width="0.428248" stroke-linecap="butt" stroke-linejoin="miter" stroke-miterlimit="10" stroke-opacity="1" fill="#000000" fill-rule="nonzero" fill-opacity="1" transform="matrix(1.00052 0 0 1 0.285646 0.285498)"/><path d="M468.509 174.565C470.164 174.565 471.507 175.907 471.507 177.563L471.507 200.152C471.507 201.807 470.164 203.149 468.509 203.149L434.46 203.149C432.805 203.149 431.462 201.807 431.462 200.152L431.462 177.563C431.462 175.907 432.805 174.565 434.46 174.565Z" stroke="#006EAF" stroke-width="0.856496" stroke-linecap="butt" stroke-linejoin="miter" stroke-miterlimit="4" stroke-opacity="1" fill="#1BA1E2" fill-rule="nonzero" fill-opacity="1" transform="matrix(1.00052 0 0 1 0.285646 0.285498)"/><text fill="#FFFFFF" fill-opacity="1" font-family="Helvetica,Helvetica_MSFontService,sans-serif" font-style="normal" font-variant="normal" font-weight="400" font-stretch="normal" font-size="16" text-anchor="start" direction="ltr" writing-mode="lr-tb" unicode-bidi="normal" text-decoration="none" transform="matrix(0.42847 0 0 0.428248 434.682 191)">kube-proxy</text><path d="M284.357 242.816C286.012 242.816 287.354 244.159 287.354 245.814L287.354 265.514C287.354 267.169 286.012 268.511 284.357 268.511L264.657 268.511C263.001 268.511 261.659 267.169 261.659 265.514L261.659 245.814C261.659 244.159 263.001 242.816 264.657 242.816Z" stroke="#001DBC" stroke-width="0.856496" stroke-linecap="butt" stroke-linejoin="miter" stroke-miterlimit="4" stroke-opacity="1" fill="#0050EF" fill-rule="nonzero" fill-opacity="1" transform="matrix(1.00052 0 0 1 0.285646 0.285498)"/><text fill="#FFFFFF" fill-opacity="1" font-family="Helvetica,Helvetica_MSFontService,sans-serif" font-style="normal" font-variant="normal" font-weight="400" font-stretch="normal" font-size="14" text-anchor="start" direction="ltr" writing-mode="lr-tb" unicode-bidi="normal" text-decoration="none" transform="matrix(0.42847 0 0 0.428248 269.722 257)">pod</text><path d="M322.899 240.464C324.554 240.464 325.897 241.806 325.897 243.462L325.897 263.161C325.897 264.817 324.554 266.159 322.899 266.159L303.199 266.159C301.544 266.159 300.202 264.817 300.202 263.161L300.202 243.462C300.202 241.806 301.544 240.464 303.199 240.464Z" stroke="#001DBC" stroke-width="0.856496" stroke-linecap="butt" stroke-linejoin="miter" stroke-miterlimit="4" stroke-opacity="1" fill="#0050EF" fill-rule="nonzero" fill-opacity="1" transform="matrix(1.00052 0 0 1 0.285646 0.285498)"/><text fill="#FFFFFF" fill-opacity="1" font-family="Helvetica,Helvetica_MSFontService,sans-serif" font-style="normal" font-variant="normal" font-weight="400" font-stretch="normal" font-size="14" text-anchor="start" direction="ltr" writing-mode="lr-tb" unicode-bidi="normal" text-decoration="none" transform="matrix(0.42847 0 0 0.428248 308.284 255)">pod</text><path d="M310.051 271.298C311.707 271.298 313.049 272.64 313.049 274.296L313.049 293.995C313.049 295.651 311.707 296.993 310.051 296.993L290.352 296.993C288.696 296.993 287.354 295.651 287.354 293.995L287.354 274.296C287.354 272.64 288.696 271.298 290.352 271.298Z" stroke="#001DBC" stroke-width="0.856496" stroke-linecap="butt" stroke-linejoin="miter" stroke-miterlimit="4" stroke-opacity="1" fill="#0050EF" fill-rule="nonzero" fill-opacity="1" transform="matrix(1.00052 0 0 1 0.285646 0.285498)"/><text fill="#FFFFFF" fill-opacity="1" font-family="Helvetica,Helvetica_MSFontService,sans-serif" font-style="normal" font-variant="normal" font-weight="400" font-stretch="normal" font-size="14" text-anchor="start" direction="ltr" writing-mode="lr-tb" unicode-bidi="normal" text-decoration="none" transform="matrix(0.42847 0 0 0.428248 295.43 286)">pod</text><path d="M428.465 254.488C430.12 254.488 431.462 255.83 431.462 257.485L431.462 277.185C431.462 278.84 430.12 280.183 428.465 280.183L408.765 280.183C407.11 280.183 405.768 278.84 405.768 277.185L405.768 257.485C405.768 255.83 407.11 254.488 408.765 254.488Z" stroke="#001DBC" stroke-width="0.856496" stroke-linecap="butt" stroke-linejoin="miter" stroke-miterlimit="4" stroke-opacity="1" fill="#0050EF" fill-rule="nonzero" fill-opacity="1" transform="matrix(1.00052 0 0 1 0.285646 0.285498)"/><text fill="#FFFFFF" fill-opacity="1" font-family="Helvetica,Helvetica_MSFontService,sans-serif" font-style="normal" font-variant="normal" font-weight="400" font-stretch="normal" font-size="14" text-anchor="start" direction="ltr" writing-mode="lr-tb" unicode-bidi="normal" text-decoration="none" transform="matrix(0.42847 0 0 0.428248 414.116 269)">pod</text><text fill="#000000" fill-opacity="1" font-family="Arial,Arial_MSFontService,sans-serif" font-style="normal" font-variant="normal" font-weight="400" font-stretch="normal" font-size="10" text-anchor="start" direction="ltr" writing-mode="lr-tb" unicode-bidi="normal" text-decoration="none" transform="matrix(0.571293 0 0 0.570997 260.224 375)">Text is not SVG - cannot display</text></g></g></svg>